<svg
          version="1.1"
          width="192"
          height="68"
          viewBox="0 0 194 70"
          xmlns="http://www.w3.org/2000/svg"
        >
          <g
            id="DJNRLogo"
            transform="translate(92.812 -270.06)"
            stroke="#000"
            stroke-width="0.5px"
          >
            <g id="DJNRLogoPart1" fill="#474747">
              <path
                id="char1path"
                d="m-92.812 298.42 14.569 25.468h10.343l-15.681-27.359 15.57-26.469h-10.232l-14.569 24.579z"
              />
            </g>
            <g id="DJNRLogoPart2" fill="#222222">
              <path
                id="char2path"
                d="m-50.92 270.06c-4.6757 0.24614-9.3514 0.49231-14.027 0.73845v53.304c5.3405 0.1141 10.682 0.57142 16.023 0.43523 4.0445-0.31456 7.8961-2.9422 9.1901-6.8662 2.2968-5.8393 1.9703-12.247 2.0785-18.405-0.0099-6.9396 0.35296-14.024-1.4239-20.798-1.0527-3.7383-3.8534-7.2199-7.8249-7.9681-1.3121-0.32178-2.6671-0.43931-4.0156-0.44058zm-7.6042 6.5707c3.0778 0.12005 6.207-0.26622 9.25 0.24676 2.9377 1.0811 3.7481 4.5443 4.1075 7.3196 0.81878 6.7695 0.48808 13.607 0.4252 20.407-0.16042 4.0255-0.20328 8.4262-2.5801 11.862-1.4301 1.7471-3.7601 1.6419-5.7946 1.5829h-5.4819c1.0354-2.0244 0.55719-4.3045 0.66456-6.4822v-33.09l-0.59066-1.8459z"
              />
              <path
                id="char3path"
                d="m-29.475 270.06v42.082c0 11.443 0 19.343-7.309 19.343v5.8324c14.249 0 14.249-9.893 14.249-25.176v-37.579c0-4.5035-0.07383-4.5035-5.3156-4.5035z"
              />
              <path
                id="char4path"
                d="m-6.6738 274.19c-1.5504-4.1344-1.5504-4.1344-6.4231-4.1344h-1.6242v53.156h1.5504c5.2418 0 5.3156 0 5.3156-4.5035v-31.525h0.36914l9.5239 31.894c1.4028 4.1344 1.6242 4.1344 6.4969 4.1344h2.2148v-48.653c0-4.5035-0.07375-4.5035-5.3157-4.5035h-1.6242v36.914h-0.36914z"
              />
              <path
                id="char5path"
                d="m29.1 270.06c-3.5192 0.27077-7.0383 0.54157-10.557 0.81235v53.23c2.0363-0.0778 4.1482 0.2571 6.1108-0.37716 1.4602-1.1175 0.82564-3.2522 0.97354-4.8612-0.02361-5.6613-0.04722-11.323-0.07083-16.984-0.03116-0.53898-0.93627-1.6924-0.4191-1.8459h3.2246c3.2169 7.0804 6.3448 14.203 9.6195 21.256 0.85061 2.0678 3.1456 2.8174 5.2168 2.7773 1.3785 0.0568 2.7585 0.0276 4.1378 0.0349-3.9129-8.0967-7.8259-16.193-11.739-24.29 2.9297-0.16301 5.0757-2.6855 5.6688-5.418 1.1292-4.713 0.83696-9.6244 0.71951-14.428-0.11304-3.2472-1.2065-6.9557-4.4081-8.4147-2.6155-1.2854-5.61-1.4667-8.477-1.4921zm-4.208 6.5707c2.548 0.10152 5.1743-0.30194 7.6423 0.4753 2.4365 0.94218 2.3372 3.9927 2.3905 6.157-0.10617 2.7518 0.38114 5.6671-0.70302 8.272-1.2982 2.2391-4.2042 1.8924-6.4436 1.9288h-2.8128c0.38624-0.98308 0.73276-1.9729 0.59066-3.0452-0.02775-4.0166 0.05543-8.0526-0.04146-12.057-0.20753-0.5769-0.41506-1.1538-0.62258-1.7306z"
              />
            </g>
            <g id="DJNRLogoPart3" fill="#474747">
              <path
                id="char6path"
                d="m72.035 270.06h-6.979l-20.792 67.832h6.9063z"
              />
              <path
                id="char7path"
                d="m99.431 294.61-14.554-24.553h-10.11l15.443 26.441-15.443 27.33h10.11l14.554-25.441z"
              />
            </g>
          </g>
        </svg>